<svg xmlns="http://www.w3.org/2000/svg" xmlns:xlink="http://www.w3.org/1999/xlink" version="1.1" x="0px" y="0px" viewBox="0 0 32 40" enable-background="new 0 0 32 32" xml:space="preserve"><g><g><path d="M28.9301758,9.5302734C29.2001953,9.5,29.4501953,9.7099609,29.4702148,9.9794922l0.5200195,5.9804688    c0.0297852,0.2695313-0.1801758,0.5097656-0.4501953,0.5400391l-6.7001953,0.5800781    c-0.2700195,0.0302734-0.5200195-0.1806641-0.5400391-0.4501953l-0.5195313-5.9804688    c-0.0302734-0.2695313,0.1796875-0.5195313,0.449707-0.5390625l1.4301758-0.1201172l-0.1298828-1.5    C23.5,8.2197266,23.7099609,7.9697266,23.9799805,7.9501953l2.8500977-0.25    c0.2797852-0.0205078,0.5200195,0.1796875,0.5400391,0.4492188l0.1298828,1.5L28.9301758,9.5302734z"/><path d="M28.0600586,19.5V21H29.5c0.2700195,0,0.5,0.2197266,0.5,0.5v6c0,0.2802734-0.2299805,0.5-0.5,0.5H9.25    c-0.2700195,0-0.5-0.2197266-0.5-0.5v-6c0-0.2802734,0.2299805-0.5,0.5-0.5h8.1899414v-1.5c0-0.2802734,0.2299805-0.5,0.5-0.5    h2.8701172c0.2700195,0,0.5,0.2197266,0.5,0.5V21h2.8901367v-1.5c0-0.2802734,0.2299805-0.5,0.5-0.5h2.8598633    C27.8398438,19,28.0600586,19.2197266,28.0600586,19.5z"/><path d="M16.4799805,14.5v5c0,0.2802734-0.2299805,0.5-0.5,0.5H9.25c-0.2700195,0-0.5-0.2197266-0.5-0.5v-5    c0-0.2802734,0.2299805-0.5,0.5-0.5h6.7299805C16.25,14,16.4799805,14.2197266,16.4799805,14.5z"/><path d="M16.4799805,6.5v6c0,0.2802734-0.2299805,0.5-0.5,0.5H2.5C2.2202148,13,2,12.7802734,2,12.5v-6    C2,6.2197266,2.2202148,6,2.5,6h1.4599609V4.5c0-0.2802734,0.2299805-0.5,0.5-0.5h2.8598633c0.2802734,0,0.5,0.2197266,0.5,0.5V6    h2.8701172V4.5c0-0.2802734,0.2202148-0.5,0.5-0.5h2.8598633c0.2700195,0,0.5,0.2197266,0.5,0.5V6h1.4301758    C16.25,6,16.4799805,6.2197266,16.4799805,6.5z"/></g></g></svg>