<svg xmlns="http://www.w3.org/2000/svg" xmlns:xlink="http://www.w3.org/1999/xlink" version="1.1" x="0px" y="0px" viewBox="0 0 158.011 289.74125000000004" style="enable-background:new 0 0 158.011 231.793;" xml:space="preserve"><g><path d="M133.102,53.556c4.733-3.22,17.585,9.151,23.452-3.193c5.867-12.344-7.88-21.939-7.88-21.939   c-12.335-3.68-20.979,7.769-20.979,7.769S128.37,56.776,133.102,53.556z"/><path d="M62.37,27.425l0.297-0.119l0.324-0.021c0,0,0.344-0.023,0.946-0.023c3.732,0,7.733,0.692,11.258,2.315   c0.738-2.226,1.143-4.604,1.143-7.078c0-12.427-10.073-22.5-22.5-22.5c-12.427,0-22.5,10.073-22.5,22.5   c0,11.049,7.965,20.23,18.465,22.132C50.556,39.631,53.195,31.095,62.37,27.425z"/><path d="M14.516,48.882c-1.093,0.628-2.319,1.727-3.119,3.158c-0.818,1.418-1.123,3.006-1.113,4.234   c0.06,2.444,0.775,3.691,1.267,4.656c1.007,1.733,1.93,2.67,2.957,3.736c1.778,1.78,3.886,3.527,6.188,5.337   c6.853,5.36,15.32,10.962,15.407,11.025c1.351,0.896,2.887,1.329,4.411,1.329c2.335,0,4.641-1.016,6.211-2.94   c0.012-0.017,6.602-8.093,13.262-16.178c0.671-0.815,1.342-1.627,2.008-2.433c-4.154-2.27-9.266-7.887-11.793-10.847   c-3.93,4.757-8.125,9.87-11.216,13.645c-2.739-1.925-5.987-4.275-8.711-6.424c-1.054-0.829-2.034-1.636-2.846-2.342   c-0.061-0.633-0.203-1.242-0.402-1.823c2.433,1.369,4.25,2.41,4.484,2.594c1.913,1.51,4.349,3.32,7.107,5.287   c2.74-3.343,5.222-6.363,7.464-9.084c-7.498-1.667-14.995-3.336-22.493-5.003c-1.513-0.35-3.789,0.02-6.1,0.889   c0.038,0.021,0.077,0.042,0.115,0.064C16.747,47.906,15.742,48.205,14.516,48.882z"/><path d="M58.767,118.509c-6.88-22.743-1.483-34.265,8.163-49.676l61.844-15.243c-2.102-3.663-2.788-11.194-3.011-15.736   l-41.05,10.118c-1.731,4.88-7.07,6.885-10.966,8.343c-2.332,0.874-4.978,1.863-5.312,2.93c-0.5,1.602-1.752,2.558-3.35,2.558   c-0.365,0-0.759-0.078-1.165-0.188c-0.763,0.923-1.556,1.884-2.39,2.896c-6.467,7.852-13.023,15.884-13.249,16.161   c-1.911,2.346-4.741,3.685-7.768,3.685c-1.97,0-3.879-0.577-5.517-1.664l-0.131-0.088c-2.097-1.401-9.411-6.341-15.399-11.026   c-2.032-1.597-4.374-3.497-6.374-5.502l-0.111-0.115c-0.478-0.496-2.708-3.134-4.925-5.776c-3.822,22.732-0.47,37.999,4.909,60.39   c0.043,0.199,0.074,0.398,0.128,0.598l0.002,0.015h0.002c0.19,0.739,2.744,11.21,2.74,27.184c0,17.181-2.928,40.622-14.648,65.608   c-2.934,6.249-0.242,13.693,6.007,16.627c1.715,0.805,3.521,1.186,5.299,1.186c4.698,0,9.2-2.661,11.327-7.195   c13.608-29.02,17.016-56.243,17.016-76.227c-0.002-4.289-0.158-8.246-0.405-11.828c0.168,0.08,0.329,0.17,0.503,0.244   c0.298,0.134,5.366,2.568,10.256,9.034c4.9,6.558,10.089,17.209,10.148,35.926c0.002,9.348-1.361,20.707-4.93,34.388   c-1.741,6.68,2.262,13.507,8.941,15.251c1.056,0.274,2.117,0.406,3.16,0.406c5.554,0,10.625-3.726,12.091-9.35   c4.025-15.439,5.738-28.915,5.74-40.695c0.075-25.125-8.064-42.552-16.863-53.094C65.722,124.118,61.955,120.833,58.767,118.509z"/><path d="M66.528,58.648c1.708-5.464,19.464-3.756,16.391-17.074c-3.073-13.317-19.806-12.293-19.806-12.293   c-11.952,4.781-11.61,19.122-11.61,19.122S64.821,64.112,66.528,58.648z"/></g></svg>