<svg xmlns="http://www.w3.org/2000/svg" xmlns:xlink="http://www.w3.org/1999/xlink" version="1.1" x="0px" y="0px" viewBox="0 0 100 125" style="enable-background:new 0 0 100 100;" xml:space="preserve"><g><path d="M65.9911728,23.6398945c4.1915817,2.6763363,9.7590179,1.4479694,12.4352188-2.7436066   c2.6763382-4.1915112,1.4479752-9.7590122-2.7435989-12.4352846c-4.191452-2.6763372-9.7588882-1.4479704-12.4352226,2.7436056   C60.5712318,15.3961201,61.7995987,20.9636211,65.9911728,23.6398945z"/><path d="M79.851593,46.4676781l-9.0479813-0.0041885l0.1078339-11.822998   c0.1204071-2.1494446-0.781044-5.2343674-3.7199097-7.2215309c-0.9579849-0.7454491-5.6285515-4.3800316-6.938324-5.3102722   c-2.1463051-1.5259705-5.3626213-1.6186275-6.7121735-1.5751781L39.262352,20.5879536   c-1.289875,0.0047112-2.4949493,0.6444149-3.2205048,1.710762l-8.3297558,12.2307949   c-1.2176361,1.7866707-0.7548714,4.2219391,1.0312729,5.4385262c1.7882385,1.2176361,4.2235088,0.756443,5.4390507-1.0317955   l7.1697044-10.5273628l8.5409851-0.0327835L38.0865974,46.3724022c-0.3988991,0.5946846-2.3536072,3.7471352-2.3536072,8.3716354   c0,2.3975792-0.156002,11.5523567-0.2502289,16.8228416l-15.3811531,0.1874084   c-2.1609631,0.0261765-3.892664,1.7997589-3.8654423,3.9617691c0.0251274,2.145256,1.7725334,3.8664856,3.9125557,3.8664856   c0.0167522,0,0.0324574,0,0.0492077-0.0010452l19.1785431-0.2334747c2.1148949-0.0251312,3.8267059-1.7264709,3.8654442-3.841362   c0.010601-0.5490799,0.1998405-10.7685623,0.2824211-16.88311l8.5896683,15.4340897l-0.1120262,16.9264908   c-0.0136108,2.1620102,1.7275124,3.9261703,3.8884773,3.9408264c0.0094223,0,0.0177994,0,0.0272217,0   c2.1494446,0,3.8989449-1.7358856,3.9136009-3.8884735l0.118309-17.9567184   c0.0041885-0.6753006-0.1664696-1.3401337-0.4941711-1.9295807l-8.0774384-14.5142555L63.047596,38.3587036l-0.1088829,11.9817467   c-0.0094223,1.0438347,0.3988991,2.0489349,1.133873,2.7901955c0.7339325,0.7412605,1.734848,1.1590042,2.7786789,1.1600494   l12.9961395,0.0062828c0.0010452,0,0.0010452,0,0.0020981,0c2.1609573,0,3.9135971-1.7515945,3.91465-3.9125557   C83.7651978,48.2224121,82.0136032,46.4687233,79.851593,46.4676781z"/></g></svg>