<?xml version="1.0" standalone="no"?>
<!DOCTYPE svg PUBLIC "-//W3C//DTD SVG 20010904//EN"
 "http://www.w3.org/TR/2001/REC-SVG-20010904/DTD/svg10.dtd">
<svg version="1.0" xmlns="http://www.w3.org/2000/svg"
 width="512.000000pt" height="512.000000pt" viewBox="0 0 512.000000 512.000000"
 preserveAspectRatio="xMidYMid meet">

<g transform="translate(0.000000,512.000000) scale(0.100000,-0.100000)"
fill="#000000" stroke="none">
<path d="M1089 4195 c-40 -22 -49 -63 -49 -230 0 -200 13 -235 88 -235 56 0
66 26 72 179 l5 136 135 3 c121 2 137 5 157 24 34 32 31 80 -8 112 -30 26 -32
26 -202 26 -130 -1 -178 -4 -198 -15z"/>
<path d="M3654 4192 c-37 -29 -47 -60 -33 -93 6 -17 20 -34 30 -39 10 -6 76
-10 148 -10 l131 0 0 -125 c0 -164 14 -195 90 -195 19 0 36 9 49 26 20 25 21
40 21 211 l0 185 -29 29 -29 29 -179 0 c-154 0 -181 -3 -199 -18z"/>
<path d="M2365 3994 c-602 -65 -1179 -334 -1785 -832 -145 -119 -551 -526
-569 -569 -11 -28 -11 -38 0 -65 18 -44 425 -452 569 -570 557 -457 1065 -710
1625 -810 112 -19 163 -22 365 -22 249 0 326 9 540 59 644 153 1345 599 1902
1209 105 116 108 120 108 166 0 45 -3 50 -99 156 -251 279 -585 564 -897 766
-404 263 -779 416 -1191 489 -115 20 -462 34 -568 23z m459 -174 c498 -104
884 -483 1002 -985 15 -64 19 -119 19 -275 0 -156 -4 -211 -19 -275 -120 -510
-509 -885 -1026 -991 -125 -26 -354 -23 -483 4 -351 76 -641 274 -829 567 -91
141 -152 289 -184 451 -25 123 -25 365 0 488 112 555 566 972 1130 1036 100
12 282 2 390 -20z"/>
<path d="M2437 3185 c-288 -58 -507 -328 -507 -625 0 -238 142 -468 351 -569
186 -90 383 -92 560 -7 227 109 363 324 363 576 0 408 -365 705 -767 625z
m348 -410 c73 -72 -28 -178 -109 -114 -19 15 -26 29 -26 57 0 75 83 110 135
57z"/>
<path d="M1077 1378 c-30 -23 -37 -68 -37 -222 0 -246 0 -246 249 -246 168 0
170 0 200 26 39 32 42 80 8 112 -20 19 -36 22 -157 24 l-135 3 -5 136 c-4 116
-8 140 -24 158 -22 24 -73 28 -99 9z"/>
<path d="M3972 1383 c-31 -12 -42 -61 -42 -188 l0 -125 -129 0 c-71 0 -137 -3
-146 -6 -8 -4 -23 -20 -31 -36 -13 -24 -13 -35 -4 -59 23 -54 42 -59 235 -59
l177 0 29 29 29 29 0 185 c0 171 -1 186 -21 211 -20 25 -61 34 -97 19z"/>
</g>
</svg>
